<svg width="587.0562133789062px" height="122px" xmlns="http://www.w3.org/2000/svg" viewBox="-43.528106689453125 14 587.0562133789062 122" style="background: rgba(0, 0, 0, 0);" preserveAspectRatio="xMidYMid"><defs><filter id="editing-extrusion" x="-100%" y="-100%" width="300%" height="300%"><feFlood result="color1" flood-color="#444"></feFlood><feConvolveMatrix order="8,8" divisor="1" kernelMatrix="1 0 0 0 0 0 0 0 0 1 0 0 0 0 0 0 0 0 1 0 0 0 0 0 0 0 0 1 0 0 0 0 0 0 0 0 1 0 0 0 0 0 0 0 0 1 0 0 0 0 0 0 0 0 1 0 0 0 0 0 0 0 0 1" in="SourceAlpha" result="extrude"></feConvolveMatrix><feComposite in="color1" in2="extrude" result="comp-extrude" operator="in"></feComposite><feOffset dx="4" dy="4" in="comp-extrude" result="offset-extrude"></feOffset><feMerge><feMergeNode in="offset-extrude"></feMergeNode><feMergeNode in="SourceGraphic"></feMergeNode></feMerge></filter></defs><g filter="url(#editing-extrusion)"><g transform="translate(40.144983768463135, 98.68000030517578)"><path d="M6.21-31.17L6.21-31.17L6.21-31.17Q4.03-32.83 4.03-36.38L4.03-36.38L4.03-36.38Q4.03-39.94 6.37-41.79L6.37-41.79L6.37-41.79Q8.70-43.65 12.74-43.65L12.74-43.65L12.74-43.65Q15.30-43.65 21.38-42.75L21.38-42.75L25.73-42.11L25.73-42.11Q27.90-41.86 30.18-41.86L30.18-41.86L30.18-41.86Q32.45-41.86 33.98-42.82L33.98-42.82L33.98-42.82Q36.29-40.77 36.29-37.82L36.29-37.82L36.29-37.82Q36.29-34.88 33.66-32.77L33.66-32.77L33.66-32.77Q30.98-30.53 27.52-30.53L27.52-30.53L27.52-30.53Q25.86-30.53 23.17-30.98L23.17-30.98L23.17-30.98Q20.03-21.12 20.03-14.27L20.03-14.27L20.03-14.27Q20.03-7.42 23.49-3.84L23.49-3.84L23.49-3.84Q21.89-0.96 19.52 0.16L19.52 0.16L19.52 0.16Q17.15 1.28 13.60 1.28L13.60 1.28L13.60 1.28Q10.05 1.28 7.84-0.67L7.84-0.67L7.84-0.67Q5.63-2.62 5.63-6.66L5.63-6.66L5.63-6.66Q5.63-11.33 8.19-19.01L8.19-19.01L8.19-19.01Q10.75-26.62 14.59-32.45L14.59-32.45L14.59-32.45Q12.74-32.64 10.82-32.64L10.82-32.64L10.82-32.64Q6.85-32.64 6.21-31.17ZM66.43-7.10L66.43-7.10L66.43-7.10Q66.43-4.29 69.31-3.46L69.31-3.46L69.31-3.46Q68.61-1.09 65.86 0.19L65.86 0.19L65.86 0.19Q63.55 1.28 61.02 1.28L61.02 1.28L61.02 1.28Q58.50 1.28 57.18 0.61L57.18 0.61L57.18 0.61Q55.87-0.06 55.17-1.15L55.17-1.15L55.17-1.15Q54.02-2.82 54.02-5.95L54.02-5.95L54.02-5.95Q54.02-7.81 55.04-12.93L55.04-12.93L55.94-17.79L55.94-17.79Q57.02-23.36 57.02-25.41L57.02-25.41L57.02-25.41Q57.02-28.99 55.04-28.99L55.04-28.99L55.04-28.99Q52.54-28.99 50.94-25.34L50.94-25.34L50.94-25.34Q50.30-23.94 49.86-21.82L49.86-21.82L45.50 0L32.64 1.28L41.66-44.80L54.53-46.08L54.02-43.52L54.02-43.52Q52.22-33.66 50.69-30.34L50.69-30.34L50.69-30.34Q54.27-33.92 60.86-33.92L60.86-33.92L60.86-33.92Q67.84-33.92 69.12-29.31L69.12-29.31L69.12-29.31Q69.57-27.84 69.57-26.56L69.57-26.56L69.57-26.56Q69.57-25.28 69.47-24.29L69.47-24.29L69.47-24.29Q69.38-23.30 69.06-21.50L69.06-21.50L68.22-16.90L66.75-9.66L66.75-9.66Q66.43-8.19 66.43-7.10ZM100.42-10.82L100.42-10.82L100.42-10.82Q102.02-9.73 102.02-7.33L102.02-7.33L102.02-7.33Q102.02-4.93 100.80-3.39L100.80-3.39L100.80-3.39Q99.58-1.86 97.60-0.83L97.60-0.83L97.60-0.83Q93.50 1.28 89.09 1.28L89.09 1.28L89.09 1.28Q84.67 1.28 82.08 0.32L82.08 0.32L82.08 0.32Q79.49-0.64 77.76-2.43L77.76-2.43L77.76-2.43Q74.37-5.82 74.37-12.03L74.37-12.03L74.37-12.03Q74.37-21.70 79.62-27.58L79.62-27.58L79.62-27.58Q85.25-33.92 95.04-33.92L95.04-33.92L95.04-33.92Q101.12-33.92 104.13-31.36L104.13-31.36L104.13-31.36Q106.37-29.44 106.37-26.30L106.37-26.30L106.37-26.30Q106.37-15.04 86.91-15.04L86.91-15.04L86.91-15.04Q86.66-13.38 86.66-11.97L86.66-11.97L86.66-11.97Q86.66-9.02 87.97-7.90L87.97-7.90L87.97-7.90Q89.28-6.78 91.71-6.78L91.71-6.78L91.71-6.78Q94.14-6.78 96.74-7.90L96.74-7.90L96.74-7.90Q99.33-9.02 100.42-10.82ZM87.36-17.79L87.36-17.79L87.36-17.79Q91.90-17.79 94.53-20.61L94.53-20.61L94.53-20.61Q97.15-23.30 97.15-27.58L97.15-27.58L97.15-27.58Q97.15-29.06 96.61-29.86L96.61-29.86L96.61-29.86Q96.06-30.66 94.98-30.66L94.98-30.66L94.98-30.66Q93.89-30.66 92.96-30.24L92.96-30.24L92.96-30.24Q92.03-29.82 91.07-28.42L91.07-28.42L91.07-28.42Q88.70-25.22 87.36-17.79ZM134.85 0L121.15 0L128.96-42.05L128.96-42.05Q135.30-42.75 144.54-42.75L144.54-42.75L144.54-42.75Q153.79-42.75 158.08-40.06L158.08-40.06L158.08-40.06Q162.37-37.38 162.37-31.97L162.37-31.97L162.37-31.97Q162.37-26.56 159.58-23.17L159.58-23.17L159.58-23.17Q156.80-19.78 152-18.69L152-18.69L152-18.69Q153.09-13.38 155.58-9.09L155.58-9.09L155.58-9.09Q157.89-5.06 160.58-3.78L160.58-3.78L160.58-3.78Q159.62-1.09 157.66 0.10L157.66 0.10L157.66 0.10Q155.71 1.28 152.93 1.28L152.93 1.28L152.93 1.28Q150.14 1.28 147.97-0.35L147.97-0.35L147.97-0.35Q145.79-1.98 144.06-4.99L144.06-4.99L144.06-4.99Q140.42-11.52 140.03-21.82L140.03-21.82L140.48-21.82L140.48-21.82Q145.22-21.95 147.58-24.42L147.58-24.42L147.58-24.42Q149.95-26.88 149.95-32.06L149.95-32.06L149.95-32.06Q149.95-38.53 144.51-38.78L144.51-38.78L143.10-38.78L143.10-38.78Q142.53-38.78 142.21-38.72L142.21-38.72L134.85 0ZM191.23-10.82L191.23-10.82L191.23-10.82Q192.83-9.73 192.83-7.33L192.83-7.33L192.83-7.33Q192.83-4.93 191.62-3.39L191.62-3.39L191.62-3.39Q190.40-1.86 188.42-0.83L188.42-0.83L188.42-0.83Q184.32 1.28 179.90 1.28L179.90 1.28L179.90 1.28Q175.49 1.28 172.90 0.32L172.90 0.32L172.90 0.32Q170.30-0.64 168.58-2.43L168.58-2.43L168.58-2.43Q165.18-5.82 165.18-12.03L165.18-12.03L165.18-12.03Q165.18-21.70 170.43-27.58L170.43-27.58L170.43-27.58Q176.06-33.92 185.86-33.92L185.86-33.92L185.86-33.92Q191.94-33.92 194.94-31.36L194.94-31.36L194.94-31.36Q197.18-29.44 197.18-26.30L197.18-26.30L197.18-26.30Q197.18-15.04 177.73-15.04L177.73-15.04L177.73-15.04Q177.47-13.38 177.47-11.97L177.47-11.97L177.47-11.97Q177.47-9.02 178.78-7.90L178.78-7.90L178.78-7.90Q180.10-6.78 182.53-6.78L182.53-6.78L182.53-6.78Q184.96-6.78 187.55-7.90L187.55-7.90L187.55-7.90Q190.14-9.02 191.23-10.82ZM178.18-17.79L178.18-17.79L178.18-17.79Q182.72-17.79 185.34-20.61L185.34-20.61L185.34-20.61Q187.97-23.30 187.97-27.58L187.97-27.58L187.97-27.58Q187.97-29.06 187.42-29.86L187.42-29.86L187.42-29.86Q186.88-30.66 185.79-30.66L185.79-30.66L185.79-30.66Q184.70-30.66 183.78-30.24L183.78-30.24L183.78-30.24Q182.85-29.82 181.89-28.42L181.89-28.42L181.89-28.42Q179.52-25.22 178.18-17.79ZM225.28-10.82L225.28-10.82L225.28-10.82Q226.88-9.73 226.88-7.33L226.88-7.33L226.88-7.33Q226.88-4.93 225.66-3.39L225.66-3.39L225.66-3.39Q224.45-1.86 222.46-0.83L222.46-0.83L222.46-0.83Q218.37 1.28 213.95 1.28L213.95 1.28L213.95 1.28Q209.54 1.28 206.94 0.32L206.94 0.32L206.94 0.32Q204.35-0.64 202.62-2.43L202.62-2.43L202.62-2.43Q199.23-5.82 199.23-12.03L199.23-12.03L199.23-12.03Q199.23-21.70 204.48-27.58L204.48-27.58L204.48-27.58Q210.11-33.92 219.90-33.92L219.90-33.92L219.90-33.92Q225.98-33.92 228.99-31.36L228.99-31.36L228.99-31.36Q231.23-29.44 231.23-26.30L231.23-26.30L231.23-26.30Q231.23-15.04 211.78-15.04L211.78-15.04L211.78-15.04Q211.52-13.38 211.52-11.97L211.52-11.97L211.52-11.97Q211.52-9.02 212.83-7.90L212.83-7.90L212.83-7.90Q214.14-6.78 216.58-6.78L216.58-6.78L216.58-6.78Q219.01-6.78 221.60-7.90L221.60-7.90L221.60-7.90Q224.19-9.02 225.28-10.82ZM212.22-17.79L212.22-17.79L212.22-17.79Q216.77-17.79 219.39-20.61L219.39-20.61L219.39-20.61Q222.02-23.30 222.02-27.58L222.02-27.58L222.02-27.58Q222.02-29.06 221.47-29.86L221.47-29.86L221.47-29.86Q220.93-30.66 219.84-30.66L219.84-30.66L219.84-30.66Q218.75-30.66 217.82-30.24L217.82-30.24L217.82-30.24Q216.90-29.82 215.94-28.42L215.94-28.42L215.94-28.42Q213.57-25.22 212.22-17.79ZM248.70-3.52L248.70-3.52L248.70-3.52Q246.72 1.28 240.38 1.28L240.38 1.28L240.38 1.28Q237.18 1.28 235.14-0.96L235.14-0.96L235.14-0.96Q233.47-2.82 233.47-4.93L233.47-4.93L233.47-4.93Q233.47-9.73 235.71-20.22L235.71-20.22L240.38-44.80L253.38-46.08L247.17-13.70L247.17-13.70Q246.08-8.96 246.08-7.30L246.08-7.30L246.08-7.30Q246.08-3.65 248.70-3.52ZM268.29-15.62L268.29-15.62L268.29-15.62Q268.29-27.71 274.56-35.33L274.56-35.33L274.56-35.33Q281.22-43.58 292.80-43.58L292.80-43.58L292.80-43.58Q301.18-43.58 305.41-39.52L305.41-39.52L305.41-39.52Q309.63-35.46 309.63-26.88L309.63-26.88L309.63-26.88Q309.63-13.82 302.98-6.21L302.98-6.21L302.98-6.21Q296.38 1.28 285.31 1.28L285.31 1.28L285.31 1.28Q276.67 1.28 272.48-3.04L272.48-3.04L272.48-3.04Q268.29-7.36 268.29-15.62ZM285.12-28.86L285.12-28.86L285.12-28.86Q282.24-17.34 282.24-8.26L282.24-8.26L282.24-8.26Q282.24-6.08 282.98-4.67L282.98-4.67L282.98-4.67Q283.71-3.26 285.66-3.26L285.66-3.26L285.66-3.26Q287.62-3.26 288.83-4.19L288.83-4.19L288.83-4.19Q290.05-5.12 291.01-7.23L291.01-7.23L291.01-7.23Q292.54-10.69 293.98-18.02L293.98-18.02L293.98-18.02Q295.42-25.34 295.55-28.38L295.55-28.38L295.55-28.38Q295.68-31.42 295.68-33.73L295.68-33.73L295.68-33.73Q295.68-36.03 294.98-37.50L294.98-37.50L294.98-37.50Q294.27-38.98 292.38-38.98L292.38-38.98L292.38-38.98Q290.50-38.98 289.22-37.82L289.22-37.82L289.22-37.82Q286.85-35.65 285.12-28.86ZM339.84 1.28L339.84 1.28L339.84 1.28Q332.10 1.28 332.10-4.74L332.10-4.74L332.10-4.74Q332.16-6.40 332.67-9.22L332.67-9.22L333.82-15.10L333.82-15.10Q335.55-23.42 335.55-25.28L335.55-25.28L335.55-25.28Q335.55-28.99 333.38-28.99L333.38-28.99L333.38-28.99Q329.73-28.99 327.81-19.46L327.81-19.46L324.03 0L311.17 1.28L317.82-32.70L328.32-33.92L327.30-27.65L327.30-27.65Q330.30-33.92 339.52-33.92L339.52-33.92L339.52-33.92Q344-33.92 345.89-32.03L345.89-32.03L345.89-32.03Q347.78-30.14 347.78-25.92L347.78-25.92L347.78-25.92Q347.78-21.95 345.73-12.67L345.73-12.67L345.73-12.67Q344.77-8.51 344.77-6.94L344.77-6.94L344.77-6.94Q344.77-5.38 345.63-4.48L345.63-4.48L345.63-4.48Q346.50-3.58 347.78-3.46L347.78-3.46L347.78-3.46Q347.14-1.28 344.93 0L344.93 0L344.93 0Q342.72 1.28 339.84 1.28ZM378.82-10.82L378.82-10.82L378.82-10.82Q380.42-9.73 380.42-7.33L380.42-7.33L380.42-7.33Q380.42-4.93 379.20-3.39L379.20-3.39L379.20-3.39Q377.98-1.86 376-0.83L376-0.83L376-0.83Q371.90 1.28 367.49 1.28L367.49 1.28L367.49 1.28Q363.07 1.28 360.48 0.32L360.48 0.32L360.48 0.32Q357.89-0.64 356.16-2.43L356.16-2.43L356.16-2.43Q352.77-5.82 352.77-12.03L352.77-12.03L352.77-12.03Q352.77-21.70 358.02-27.58L358.02-27.58L358.02-27.58Q363.65-33.92 373.44-33.92L373.44-33.92L373.44-33.92Q379.52-33.92 382.53-31.36L382.53-31.36L382.53-31.36Q384.77-29.44 384.77-26.30L384.77-26.30L384.77-26.30Q384.77-15.04 365.31-15.04L365.31-15.04L365.31-15.04Q365.06-13.38 365.06-11.97L365.06-11.97L365.06-11.97Q365.06-9.02 366.37-7.90L366.37-7.90L366.37-7.90Q367.68-6.78 370.11-6.78L370.11-6.78L370.11-6.78Q372.54-6.78 375.14-7.90L375.14-7.90L375.14-7.90Q377.73-9.02 378.82-10.82ZM365.76-17.79L365.76-17.79L365.76-17.79Q370.30-17.79 372.93-20.61L372.93-20.61L372.93-20.61Q375.55-23.30 375.55-27.58L375.55-27.58L375.55-27.58Q375.55-29.06 375.01-29.86L375.01-29.86L375.01-29.86Q374.46-30.66 373.38-30.66L373.38-30.66L373.38-30.66Q372.29-30.66 371.36-30.24L371.36-30.24L371.36-30.24Q370.43-29.82 369.47-28.42L369.47-28.42L369.47-28.42Q367.10-25.22 365.76-17.79ZM406.08-22.46L406.08-22.46L406.08-22.46Q406.98-24.83 406.98-26.88L406.98-26.88L406.98-26.88Q406.98-30.66 403.90-30.66L403.90-30.66L403.90-30.66Q402.30-30.66 400.99-29.22L400.99-29.22L400.99-29.22Q399.68-27.78 399.68-25.98L399.68-25.98L399.68-25.98Q399.68-24.70 400.70-23.68L400.70-23.68L400.70-23.68Q402.18-22.27 405.95-19.97L405.95-19.97L405.95-19.97Q409.73-17.66 411.17-15.78L411.17-15.78L411.17-15.78Q412.61-13.89 412.61-11.30L412.61-11.30L412.61-11.30Q412.61-8.70 411.36-6.34L411.36-6.34L411.36-6.34Q410.11-3.97 407.87-2.30L407.87-2.30L407.87-2.30Q403.07 1.28 395.39 1.28L395.39 1.28L395.39 1.28Q391.23 1.28 388.03-0.90L388.03-0.90L388.03-0.90Q384.83-3.01 384.83-5.50L384.83-5.50L384.83-5.50Q384.83-8 386.66-9.47L386.66-9.47L386.66-9.47Q388.48-10.94 391.17-10.94L391.17-10.94L391.17-10.94Q393.86-10.94 395.52-9.92L395.52-9.92L395.52-9.92Q394.69-7.81 394.69-6.40L394.69-6.40L394.69-6.40Q394.69-2.18 398.27-2.18L398.27-2.18L398.27-2.18Q399.81-2.18 400.83-3.14L400.83-3.14L400.83-3.14Q401.86-4.10 401.86-5.76L401.86-5.76L401.86-5.76Q401.86-9.02 396.35-12.48L396.35-12.48L396.35-12.48Q391.87-15.42 390.85-16.58L390.85-16.58L390.85-16.58Q389.12-18.62 389.12-21.18L389.12-21.18L389.12-21.18Q389.12-23.74 390.34-26.18L390.34-26.18L390.34-26.18Q391.55-28.61 393.79-30.34L393.79-30.34L393.79-30.34Q398.46-33.92 406.59-33.92L406.59-33.92L406.59-33.92Q410.75-33.92 413.22-32.26L413.22-32.26L413.22-32.26Q415.68-30.59 415.68-27.78L415.68-27.78L415.68-27.78Q415.68-24.96 413.98-23.36L413.98-23.36L413.98-23.36Q412.29-21.76 409.22-21.76L409.22-21.76L409.22-21.76Q407.10-21.76 406.08-22.46Z" fill="#ccc"></path></g></g><style>text {
  font-size: 64px;
  font-family: Arial Black;
  dominant-baseline: central;
  text-anchor: middle;
}</style></svg>